<svg width="747" height="558" viewBox="0 0 747 558" fill="none" xmlns="http://www.w3.org/2000/svg">
<g opacity="0.5">
<path d="M698.078 556.751H593.906V548.615H593.903V521.113H547.933C546.606 517.958 545.279 514.799 543.956 511.641C537.694 496.728 531.432 481.812 525.167 466.896C520.783 456.463 516.175 445.085 506.723 438.176C501.123 434.084 494.388 432.287 487.59 432.287C482.269 432.287 476.905 433.387 472.012 435.344C464.201 438.472 457.452 443.535 451.455 449.39H426.269H339.65H290.584V485.253H241.73V521.113H206.375C205.556 492.549 203.923 464.361 200.099 437.148C199.632 433.666 199.103 430.197 198.542 426.746L190.1 426.885C190.459 424.959 190.769 423.016 191.096 421.055L160.89 426.746C160.765 430.618 160.517 434.707 160.143 438.966C157.671 467.945 149.991 505.383 142.062 543.221H161.76C168.725 521.813 175.037 499.145 180.556 474.924C182.291 489.798 183.664 505.275 184.823 521.113H172.015V548.615H172.012V556.751H65.1484C34.9694 509.165 25.2219 448.052 44.2536 394.762C69.9248 322.878 145.111 273.143 220.81 273.143C232.017 273.143 243.241 274.233 254.312 276.504C272.62 280.258 290.228 286.756 307.519 294.397L308.355 304.855C310.375 330.069 331.424 349.502 356.721 349.502H408.918C415.312 349.502 421.431 348.262 427.042 346.002C439.353 349.007 451.918 350.78 464.856 350.78C465.288 350.78 465.73 350.777 466.162 350.773C508.893 350.38 550.095 330.087 592.416 330.087C596.275 330.087 600.147 330.257 604.027 330.623C653.201 335.293 695.765 373.65 711.642 420.428C726.729 464.87 719.617 514.949 698.078 556.751ZM37.5789 419.387C37.4918 419.843 37.4026 420.299 37.3194 420.759C55.6361 426.753 74.8676 429.929 94.1395 429.929C102.949 429.929 111.766 429.267 120.51 427.905C156.445 422.309 190.013 404.931 216.349 379.961L219.842 391.906L228.315 389.9C228.454 389.869 228.597 389.837 228.719 389.792C231.178 389.106 233.323 387.567 234.737 385.439L235.778 383.882C235.935 383.617 236.105 383.37 236.259 383.105C246.971 365.926 253.313 351.362 251.321 350.526C251.004 350.394 250.739 350.348 250.52 350.348C250.022 350.348 249.771 350.582 249.771 350.582C249.771 350.582 249.834 349.105 249.43 348.701C249.277 348.551 249.102 348.492 248.925 348.492C248.176 348.492 247.312 349.558 247.312 349.558C247.312 349.558 247.702 347.611 246.271 347.611C244.843 347.611 240.319 354.468 240.319 354.468C240.319 354.468 240.184 353.719 239.957 352.803C247.755 341.833 254.333 330.01 259.446 317.546C260.414 315.185 261.323 312.806 262.183 310.413C263.583 311.507 265.077 312.527 266.689 313.489L267.654 305.05C266.383 304.883 265.258 304.625 264.255 304.281C266.738 296.459 268.675 288.501 270.148 280.453C269.685 280.317 269.225 280.181 268.762 280.052C267.302 288.038 265.408 295.954 262.949 303.748C257.889 301.338 256.029 296.034 251.603 287.373L247.769 292.84C251.902 299.718 255.831 305.13 261.03 309.484C255.772 324.281 248.444 338.271 239.445 351.097C239.128 350.237 238.742 349.547 238.32 349.547C238.293 349.547 238.265 349.551 238.233 349.558C237.631 349.687 237.338 352.016 237.199 354.228C229.899 364.174 221.583 373.382 212.441 381.681C189.787 402.253 162.009 417.308 132.151 424.235C119.674 427.129 106.913 428.525 94.1507 428.525C75.2646 428.525 56.3726 425.464 38.3753 419.659C38.1082 419.575 37.8456 419.474 37.5789 419.387ZM138.44 378.146C138.673 378.38 138.906 378.613 139.155 378.829L150.333 388.827L158.402 375.13C155.261 373.232 152.152 370.763 148.981 367.559L139.264 343.724C139.264 343.724 142.047 335.488 140.554 335.175C140.499 335.164 140.444 335.157 140.388 335.157C138.917 335.157 137.056 339.124 137.056 339.124C137.056 339.124 135.237 330.901 133.885 330.821C133.782 330.818 133.684 330.814 133.591 330.814C132.451 330.814 132.066 331.191 132.066 332.455C132.066 332.455 131.523 332.103 130.974 332.103C130.467 332.103 129.955 332.402 129.858 333.559C129.858 333.559 129.295 333.318 128.662 333.318C127.939 333.318 127.125 333.632 126.951 334.973C126.718 336.839 131.366 358.059 133.823 368.959C133.9 369.377 133.994 369.798 134.087 370.189C134.756 373.204 136.279 375.956 138.44 378.146ZM546.432 521.113H524.188V485.253H475.335V449.39H453.384C456.508 446.468 459.83 443.783 463.382 441.453C470.525 436.769 479.221 433.641 487.823 433.641C492.622 433.641 497.39 434.613 501.851 436.835C513.222 442.497 518.62 454.906 523.286 465.991C529.116 479.834 534.918 493.688 540.734 507.538C542.632 512.062 544.534 516.589 546.432 521.113ZM217.094 379.25C224.355 372.289 231.052 364.752 237.091 356.721C237.07 357.62 237.07 358.229 237.07 358.229L226.574 378.052C223.363 378.477 220.194 378.874 217.094 379.25Z" fill="#F0F6FF"/>
<path d="M120.51 427.905C181.687 418.377 236.011 374.705 259.446 317.546C264.37 305.527 267.835 293.101 270.148 280.453C269.684 280.317 269.225 280.181 268.762 280.052C267.208 288.553 265.161 296.974 262.469 305.252C252.923 334.607 235.256 360.97 212.441 381.681C189.787 402.253 162.008 417.308 132.151 424.235C101.21 431.412 68.5344 429.389 38.3753 419.659C38.1081 419.575 37.8455 419.474 37.5788 419.387C37.4917 419.843 37.4026 420.299 37.3193 420.759C64.0092 429.493 92.6392 432.245 120.51 427.905Z" fill="white"/>
<path d="M219.897 469.209C265.564 475.317 312.478 478.581 357.602 467.025C378.073 461.784 397.847 453.454 415.18 441.275C432.582 429.051 446.99 413.073 458.413 395.197C467.548 380.904 474.676 365.696 480.402 349.944C479.897 349.996 479.392 350.052 478.89 350.097C474.979 360.747 470.414 371.167 464.981 381.256C454.449 400.804 440.819 418.826 423.674 433.049C406.769 447.07 386.797 456.947 365.835 463.285C321.554 476.676 274.661 474.687 229.297 469.035C179.669 462.85 130.001 452.378 79.7403 454.617C64.7202 455.285 49.5257 457.076 34.677 460.325C34.6982 460.809 34.709 461.296 34.7334 461.781C46.8413 459.095 59.1829 457.389 71.4663 456.494C121.288 452.872 170.738 462.637 219.897 469.209Z" fill="white"/>
<path d="M666.825 502.015C649.273 498.167 631.957 492.8 615.941 484.557C601.018 476.874 586.955 466.639 576.995 452.963C566.756 438.907 561.867 421.867 563.392 404.516C566.195 372.644 586.973 347.172 613.827 332.023C613.141 331.894 612.451 331.779 611.762 331.664C589.219 344.689 571.252 364.641 564.381 390.868C560 407.595 561.006 425.349 568.348 441.094C575.386 456.194 587.491 468.289 601.188 477.497C615.645 487.214 631.988 494.026 648.674 498.849C668.702 504.641 689.388 508.165 710.19 509.495C711.858 509.603 713.526 509.67 715.198 509.746C715.299 509.286 715.403 508.827 715.501 508.367C699.136 507.618 682.831 505.525 666.825 502.015Z" fill="white"/>
<path d="M301.644 316.003C304.81 309.306 308.355 302.804 312.242 296.518C311.813 296.323 311.388 296.128 310.96 295.933C308.174 300.45 305.562 305.075 303.142 309.807C297.124 321.586 292.262 333.966 288.72 346.716C284.851 360.643 281.581 375.949 285.158 390.283C287.923 401.351 295.17 411.683 306.185 415.664C318.65 420.167 332.19 415.493 343.223 409.378C355.252 402.716 366.264 393.818 376.683 384.899C387.17 375.928 397.06 366.26 406.278 355.99C409.991 351.853 413.592 347.611 417.078 343.285C416.587 343.139 416.092 342.993 415.598 342.84C398.746 363.673 379.271 382.374 357.623 398.244C346.528 406.383 334.025 414.616 319.963 415.918C305.99 417.214 294.303 409.176 288.769 396.593C282.636 382.642 285.133 366.748 288.654 352.469C291.747 339.921 296.117 327.684 301.644 316.003Z" fill="white"/>
<path d="M676.907 465.611C691.346 466.381 705.84 462.794 719.074 456.497C719.039 456.076 719.008 455.655 718.97 455.237C708.007 460.429 696.145 463.63 683.799 464.225C669.952 464.894 655.81 461.269 645.494 451.639C636.192 442.954 631.529 430.326 635.092 417.841C636.669 412.3 639.797 407.107 644.3 403.461C650.15 398.725 657.694 397.52 665.007 397.297C671.593 397.098 678.21 397.569 684.767 396.729C689.549 396.116 694.222 394.807 698.649 392.912C698.405 392.515 698.165 392.111 697.914 391.714C696.469 392.327 694.996 392.884 693.498 393.365C679.986 397.687 665.522 393.497 652.121 397.778C641.653 401.121 634.684 410.492 632.915 421.16C631.066 432.321 635.255 443.215 643.067 451.214C651.972 460.335 664.321 464.943 676.907 465.611Z" fill="white"/>
<path d="M543.956 511.641C537.694 496.728 531.433 481.812 525.167 466.896C520.783 456.463 516.175 445.085 506.723 438.176C496.742 430.883 483.164 430.883 472.013 435.344C460.165 440.088 450.758 449.285 442.724 458.935C426.725 478.156 415.246 500.991 408.873 525.15C406.143 535.507 404.36 546.094 403.545 556.751H404.976C407.386 525.543 418.154 494.984 436.396 469.407C443.856 458.949 452.548 448.557 463.383 441.453C474.513 434.153 489.401 430.636 501.851 436.835C513.222 442.497 518.62 454.906 523.287 465.991C529.117 479.834 534.919 493.688 540.734 507.538C547.62 523.941 554.508 540.344 561.397 556.751H562.894C556.584 541.713 550.27 526.679 543.956 511.641Z" fill="white"/>
<path d="M473.305 322.296C466.364 322.296 459.569 321.673 453.353 320.523C455.488 315.676 456.856 310.406 457.299 304.855L461.795 248.684C468.387 250.415 474.464 250.882 480.437 250.882C481.861 250.882 483.279 250.858 484.696 250.812C490.289 250.645 495.875 250.231 501.789 250.231C505.365 250.231 509.06 250.384 512.95 250.833C527.584 252.519 535.719 259.641 536.722 274.943C538.997 309.578 504.648 322.296 473.305 322.296Z" fill="#F0F6FF"/>
<path d="M605.103 118.906C596.334 115.869 590.337 110.6 583.581 102.883L586.44 96.7915C593.534 106.188 595.86 111.272 604.727 110.537L605.103 118.906Z" fill="#FFB900"/>
<path d="M705.805 253.856C699.279 245.369 696.364 236.656 693.947 225.212L699.512 221.524C701.424 234.716 701.076 240.87 709.518 245.979L705.805 253.856Z" fill="#007BFF"/>
<path d="M487.248 141.825C478.013 144.123 470.33 142.803 460.913 139.704L460.896 132.547C471.337 136.97 475.617 140.233 483.327 134.473L487.248 141.825Z" fill="#14CCA1"/>
<path d="M249.816 112.714C245.449 118.92 240.546 122.239 233.946 125.464L231.115 121.389C238.818 118.377 242.548 117.969 244.676 110.593L249.816 112.714Z" fill="#FF5C33"/>
<path d="M97.9038 293.391C87.5302 293.913 79.762 291.043 70.6306 286.007L72.5126 278.68C82.3749 285.269 86.0316 289.459 95.7108 285.088L97.9038 293.391Z" fill="#007BFF"/>
<path d="M116.82 115.563C108.906 109.809 104.76 102.754 100.796 93.0651L106.185 88.0188C109.837 99.4556 110.237 105.164 119.745 107.264L116.82 115.563Z" fill="#14CCA1"/>
<path d="M164.181 179.029C155.212 185.291 146.751 187.112 135.917 187.791L133.677 180.297C145.994 180.576 151.495 182.212 157.786 172.956L164.181 179.029Z" fill="#007BFF"/>
<path d="M292.614 6.35213C283.619 11.6422 275.379 12.7079 264.931 12.485L263.228 5.10193C275.044 6.36611 280.233 8.38601 286.836 -5.43594e-05L292.614 6.35213Z" fill="#FFB900"/>
<path d="M420.094 24.594C412.6 20.8955 407.748 15.5427 402.438 7.93329L405.492 2.8766C410.959 12.0079 412.575 16.7721 420.481 17.1482L420.094 24.594Z" fill="#14CCA1"/>
<path d="M536.809 53.8547C545.014 49.0244 549.566 42.7139 554.107 33.9239L549.089 28.8323C544.746 39.2766 543.99 44.5875 534.438 45.89L536.809 53.8547Z" fill="#FF5C33"/>
<path d="M266.689 313.489C265.077 312.527 263.583 311.507 262.183 310.413C262.911 308.38 263.6 306.335 264.255 304.281C265.258 304.625 266.383 304.883 267.654 305.05L266.689 313.489ZM261.03 309.484C255.831 305.13 251.902 299.718 247.769 292.84L251.603 287.373C256.029 296.034 257.889 301.338 262.949 303.748C262.792 304.249 262.632 304.751 262.469 305.252C262.009 306.67 261.528 308.08 261.03 309.484Z" fill="#FD7555"/>
<path d="M262.183 310.413C261.789 310.11 261.406 309.8 261.03 309.484C261.528 308.08 262.009 306.67 262.469 305.252C262.632 304.751 262.792 304.249 262.949 303.748C263.364 303.943 263.795 304.12 264.255 304.281C263.6 306.335 262.911 308.38 262.183 310.413Z" fill="#FF7755"/>
<path d="M540.282 239.355C536.99 249.611 531.909 256.402 524.599 263.935L519.386 260.107C528.207 252.285 532.881 249.862 532.832 239.236L540.282 239.355Z" fill="#FF5C33"/>
<path d="M204.079 69.6517C204.079 71.5741 202.519 73.1343 200.597 73.1343C198.674 73.1343 197.114 71.5741 197.114 69.6517C197.114 67.7293 198.674 66.1691 200.597 66.1691C202.519 66.1691 204.079 67.7293 204.079 69.6517Z" fill="#FF5C33"/>
<path d="M480.83 69.6517C480.83 71.5741 479.27 73.1343 477.348 73.1343C475.422 73.1343 473.865 71.5741 473.865 69.6517C473.865 67.7293 475.422 66.1691 477.348 66.1691C479.27 66.1691 480.83 67.7293 480.83 69.6517Z" fill="#FFB900"/>
<path d="M571.841 175.756C571.841 177.678 570.28 179.238 568.358 179.238C566.436 179.238 564.875 177.678 564.875 175.756C564.875 173.83 566.436 172.273 568.358 172.273C570.28 172.273 571.841 173.83 571.841 175.756Z" fill="#FF5C33"/>
<path d="M209.652 211.045C209.652 212.967 208.091 214.527 206.169 214.527C204.247 214.527 202.687 212.967 202.687 211.045C202.687 209.122 204.247 207.562 206.169 207.562C208.091 207.562 209.652 209.122 209.652 211.045Z" fill="#14CCA1"/>
<path d="M54.361 180.516L47.3958 187.482L40.4307 180.516L47.3958 173.551L54.361 180.516Z" fill="#FFB900"/>
<path d="M659.201 169.104L652.236 176.069L645.271 169.104L652.236 162.139L659.201 169.104Z" fill="#14CCA1"/>
<path d="M412.168 417.242L353.493 417.315L353.476 403.611C353.472 398.774 357.39 394.845 362.228 394.838L403.378 394.789C408.219 394.783 412.143 398.7 412.15 403.541L412.168 417.242Z" fill="#FFB900"/>
<path d="M401.803 402.643H363.843V335.429H401.803V402.643Z" fill="#FFB900"/>
<path d="M363.843 364.477V335.429H401.803L401.765 349.537L363.843 364.477Z" fill="#E8950C"/>
<path d="M448.097 283.594L445.677 275.591C490.125 262.138 508.973 234.336 503.293 190.588C503.23 190.525 502.76 190.25 502.182 190.41L496.063 192.065C493.615 192.726 491.967 194.558 491.967 196.627V206.103C491.967 211.856 487.113 216.457 480.917 216.575C474.513 216.697 463.553 216.906 462.094 216.906V208.548C463.093 208.548 470.069 208.426 480.757 208.217C482.303 208.189 483.609 207.221 483.609 206.103V196.627C483.609 190.734 487.736 185.66 493.879 183.995L499.998 182.341C502.69 181.613 505.542 182.066 507.83 183.595C509.906 184.981 511.271 187.137 511.581 189.512C514.566 212.507 511.219 231.916 501.628 247.194C491.25 263.736 473.238 275.985 448.097 283.594Z" fill="#FFB900"/>
<path d="M317.473 283.594C292.332 275.985 274.32 263.736 263.942 247.194C254.351 231.916 251.004 212.507 253.988 189.512C254.298 187.137 255.664 184.978 257.739 183.595C260.027 182.066 262.88 181.613 265.572 182.341L271.69 183.995C277.834 185.657 281.961 190.734 281.961 196.627V206.103C281.961 207.221 283.267 208.189 284.813 208.217C295.497 208.426 302.477 208.548 303.476 208.548V216.906C302.017 216.906 291.057 216.697 284.653 216.575C278.457 216.457 273.602 211.856 273.602 206.103V196.627C273.602 194.558 271.955 192.726 269.507 192.065L263.388 190.41C262.806 190.25 262.336 190.525 262.256 190.658C256.597 234.336 275.445 262.138 319.893 275.591L317.473 283.594Z" fill="#FFB900"/>
<path d="M466.381 191.434L457.298 304.855C456.212 318.451 449.581 330.376 439.732 338.469C431.332 345.379 420.578 349.502 408.918 349.502H356.721C331.424 349.502 310.375 330.069 308.355 304.855L303.647 245.999L299.272 191.434C298.59 182.895 305.332 175.582 313.913 175.582H451.74C460.307 175.582 467.063 182.895 466.381 191.434Z" fill="#FFB900"/>
<path d="M439.732 338.469C431.332 345.379 420.578 349.502 408.919 349.502H356.722C331.424 349.502 310.375 330.069 308.355 304.855L303.647 245.999C336.704 287.777 389.416 323.619 439.732 338.469Z" fill="#E8950C"/>
<path d="M411.109 350.198H356.721V348.805H411.109V350.198Z" fill="#001F40"/>
<path d="M372.337 395.535H362.227V394.142H372.337V395.535Z" fill="#001F40"/>
<path d="M403.681 395.535H393.571V394.142H403.681V395.535Z" fill="#001F40"/>
<path d="M425.826 450.42L339.824 450.525L339.796 427.804C339.785 419.331 346.646 412.453 355.119 412.443L410.437 412.377C418.91 412.366 425.788 419.227 425.798 427.7L425.826 450.42Z" fill="#FFB900"/>
<path d="M412.126 413.268H353.531V411.875H412.126V413.268Z" fill="#E8950C"/>
<mask id="mask0_21_11715" style="mask-type:luminance" maskUnits="userSpaceOnUse" x="419" y="209" width="17" height="31">
<path d="M427.536 239.487C423.305 239.487 419.875 232.78 419.875 224.512C419.875 216.241 423.305 209.537 427.536 209.537C431.768 209.537 435.198 216.241 435.198 224.512C435.198 232.78 431.768 239.487 427.536 239.487Z" fill="white"/>
</mask>
<g mask="url(#mask0_21_11715)">
<path d="M419.875 239.487H435.198V209.537H419.875V239.487Z" fill="#FFE399"/>
</g>
<path d="M172.016 556.977H593.903V521.113H172.016V556.977Z" fill="white"/>
<path d="M241.73 521.113H524.188V485.253H241.73V521.113Z" fill="white"/>
<path d="M290.583 485.253H475.335V449.389H290.583V485.253Z" fill="white"/>
<path d="M279.039 556.974H486.88V521.117H279.039V556.974Z" fill="#FF5C33"/>
<path d="M308.961 521.117H456.957V485.246H308.961V521.117Z" fill="#FF5C33"/>
<path d="M339.65 485.246H426.269V449.389H339.65V485.246Z" fill="#FF5C33"/>
<path d="M290.587 485.232H339.65V476.874H290.587V485.232Z" fill="#E5EBF2"/>
<path d="M426.268 485.232H475.331V476.874H426.268V485.232Z" fill="#E5EBF2"/>
<path d="M339.65 485.232H426.269V476.874H339.65V485.232Z" fill="#C8482C"/>
<path d="M241.733 521.061H308.961V512.703H241.733V521.061Z" fill="#E5EBF2"/>
<path d="M456.957 521.061H524.185V512.703H456.957V521.061Z" fill="#E5EBF2"/>
<path d="M308.961 521.061H456.957V512.703H308.961V521.061Z" fill="#C8482C"/>
<path d="M172.012 556.974H172.015V556.751H172.012V556.974Z" fill="#E5EBF2"/>
<path d="M172.012 556.751H172.015V548.615H172.012V556.751Z" fill="#D8E3F2"/>
<path d="M279.039 556.974H172.016V548.615H279.039V556.974Z" fill="#E5EBF2"/>
<path d="M593.903 556.974H593.906V556.751H593.903V556.974Z" fill="#E5EBF2"/>
<path d="M593.903 556.751H593.906V548.615H593.903V556.751Z" fill="#D8E3F2"/>
<path d="M593.903 556.974H486.879V548.615H593.903V556.751V556.974Z" fill="#E5EBF2"/>
<path d="M279.039 556.974H486.88V548.615H279.039V556.974Z" fill="#C8482C"/>
<path d="M172.712 556.977H171.319V520.417L241.037 520.365L241.033 484.557L289.89 484.536L289.887 448.693H339.308V450.086H291.28L291.284 485.929L242.426 485.95L242.43 521.758L172.712 521.81V556.977Z" fill="#95BEFF"/>
<path d="M594.6 556.977H593.206V521.81L523.489 521.758L523.492 485.95L474.635 485.929L474.638 450.086H425.812V448.693H476.031L476.028 484.536L524.885 484.557L524.882 520.365L594.6 520.417V556.977Z" fill="#95BEFF"/>
<path d="M374.124 206.779L368.928 223.986L389.203 230.377L382.433 219.051L384.422 209.105L374.124 206.779Z" fill="#001F40"/>
<path d="M378.644 221.691L378.028 220.441L382.127 218.424L382.743 219.675L378.644 221.691Z" fill="white"/>
<path d="M370.537 153L384.798 154.369C387.73 154.651 390.603 155.612 392.93 157.416C397.461 160.927 399.247 166.394 398.269 171.967C398.014 173.412 397.708 174.749 397.485 175.885L385.815 217.279L368.116 207.837L376.015 177.006L358.041 176.452L348.241 155.898L351.78 139.512L370.537 153Z" fill="#007BFF"/>
<path d="M368.075 225.309L363.662 244.171L385.909 249.66L377.854 237.941L379.309 227.11L368.075 225.309Z" fill="#001F40"/>
<path d="M373.929 240.991L373.236 239.786L377.505 237.338L378.199 238.543L373.929 240.991Z" fill="white"/>
<path d="M349.056 176.727L364.331 232.456L381.486 230.512L371.452 171.451C370.484 166.304 370.265 163.142 362.384 159.217L353.946 154.536L351.779 139.512L338.984 147.843L336.912 167.418C336.411 172.158 339.946 176.341 344.616 176.539L349.056 176.727Z" fill="#007BFF"/>
<path d="M371.289 152.711L345.842 155.602C343.003 155.926 340.433 153.892 340.099 151.05L335.662 113.369L356.875 108.197L379.383 111.558L375.252 148.738C375.019 150.824 373.375 152.475 371.289 152.711Z" fill="white"/>
<path d="M318.361 68.3353C318.361 68.3353 320.339 58.6189 318.803 58.9741C317.271 59.3328 315.693 63.0592 315.693 63.0592C315.693 63.0592 312.329 54.9796 311.04 55.0597C309.748 55.1433 310.138 57.191 310.138 57.191C310.138 57.191 307.732 56.0453 307.105 58.4204C307.105 58.4204 304.698 57.2746 304.719 61.6801C304.726 63.2821 306.011 68.8507 307.645 75.2831L319.172 70.902L318.361 68.3353Z" fill="#FFBA9A"/>
<path d="M327.238 93.2183L319.172 70.9019L307.645 75.283C309.665 83.2338 312.214 92.5079 313.541 97.279C314.126 99.379 315.181 101.305 316.633 102.931L339.775 130.482L349.76 116.318L327.238 93.2183Z" fill="#003E80"/>
<path d="M314.157 67.4959C313.019 66.1447 313.113 64.8457 314.446 63.6372L314.68 63.8949C313.496 64.9711 313.412 66.075 314.426 67.273L314.157 67.4959Z" fill="#974245"/>
<path d="M311.301 61.9551L309.654 57.2014L309.981 57.0865L311.632 61.8402L311.301 61.9551Z" fill="#974245"/>
<path d="M308.836 62.6552L307.38 58.3159L307.707 58.208L309.167 62.5473L308.836 62.6552Z" fill="#974245"/>
<path d="M307.275 63.8776L305.454 58.8801L305.781 58.7582L307.603 63.7592L307.275 63.8776Z" fill="#974245"/>
<path d="M407.842 54.6418C407.581 50.2433 404.61 51.1348 404.61 51.1348C404.029 49.2194 402.148 50.501 402.148 50.501C402.148 50.501 402.246 49.2194 400.953 49.2194C399.658 49.2194 396.976 56.7104 396.976 56.7104C396.976 56.7104 395.165 53.0885 393.612 52.8308C392.059 52.5731 394.647 62.1433 394.647 62.1433L393.901 65.1522L405.613 69.2756C406.919 62.3836 407.94 56.3134 407.842 54.6418Z" fill="#FFBA9A"/>
<path d="M393.902 65.1522L387.138 87.9945L367.636 113.995L378.78 125.606L398.554 96.5616C399.902 94.8482 400.835 92.8597 401.285 90.7248C402.27 86.0582 404.127 77.1323 405.614 69.2756L393.902 65.1522Z" fill="#003E80"/>
<path d="M398.899 61.0811L398.613 60.886C399.491 59.587 399.289 58.497 397.997 57.5567L398.203 57.2746C399.655 58.3333 399.892 59.6149 398.899 61.0811Z" fill="#974245"/>
<path d="M401.149 55.2651L400.807 55.185L401.943 50.285L402.284 50.3617L401.149 55.2651Z" fill="#974245"/>
<path d="M403.677 55.7004L403.336 55.6273L404.321 51.1557L404.663 51.2323L403.677 55.7004Z" fill="#974245"/>
<path d="M405.359 56.7487L405.021 56.6652L406.299 51.5005L406.637 51.5841L405.359 56.7487Z" fill="#974245"/>
<path d="M356.568 114.445C354.134 114.445 352.156 112.47 352.156 110.032V102.2H360.981V110.032C360.981 112.47 359.006 114.445 356.568 114.445Z" fill="#FFBA9A"/>
<path d="M360.883 103.328C359.497 108.256 353.855 108.462 352.11 103.328H360.883Z" fill="#001F40"/>
<path d="M363.081 97.6866C363.081 101.88 360.166 105.279 356.568 105.279C352.974 105.279 350.059 101.88 350.059 97.6866C350.059 93.4935 352.974 90.0945 356.568 90.0945C360.166 90.0945 363.081 93.4935 363.081 97.6866Z" fill="#FFBA9A"/>
<path d="M350.609 97.8154C350.992 92.581 354.457 91.3517 354.457 91.3517L358.957 91.2716C360.806 92.6576 362.377 95.2696 362.46 98.0069L364 97.9303C364.957 92.8144 364.115 87.8099 361.151 86.6571L362.614 85.9258C350.4 83.2233 347.377 88.1198 348.84 96.6975L350.609 97.8154Z" fill="#001F40"/>
<path d="M351.421 97.3244C351.908 98.3482 351.578 99.5253 350.683 99.9502C349.788 100.375 348.666 99.891 348.179 98.8671C347.691 97.8467 348.022 96.6696 348.92 96.2448C349.815 95.8164 350.937 96.3005 351.421 97.3244Z" fill="#FFBA9A"/>
<path d="M350.118 98.6094C349.909 98.0208 349.519 97.6308 348.927 97.4218L349.032 97.1293C349.718 97.3731 350.167 97.8223 350.407 98.5084L350.118 98.6094Z" fill="#001F40"/>
<path d="M361.928 97.3244C361.44 98.3482 361.775 99.5253 362.67 99.9502C363.565 100.375 364.686 99.891 365.17 98.8671C365.658 97.8467 365.327 96.6696 364.432 96.2448C363.537 95.8164 362.415 96.3005 361.928 97.3244Z" fill="#FFBA9A"/>
<path d="M363.234 98.6094L362.945 98.5084C363.185 97.8223 363.634 97.3731 364.32 97.1293L364.421 97.4218C363.833 97.6308 363.443 98.0208 363.234 98.6094Z" fill="#001F40"/>
<path d="M352.055 109.357C356.593 124.614 355.06 147.919 349.889 165.371L331.521 168.216L335.662 113.369L352.055 109.357Z" fill="#003E80"/>
<path d="M360.936 108.834C362.329 126.501 365.613 152.043 372.111 164.284L383.224 158.604L379.383 111.558L360.936 108.834Z" fill="#003E80"/>
<path d="M381.141 230.568C381.044 229.976 371.456 171.249 369.917 166.28C368.416 161.446 358.724 157.486 358.626 157.444L358.887 156.8C359.298 156.964 368.983 160.927 370.578 166.074C372.139 171.089 381.434 228.033 381.831 230.457L381.141 230.568Z" fill="#001F40"/>
<path d="M354.416 197.094L347.451 172.715L348.119 172.524L355.085 196.902L354.416 197.094Z" fill="#001F40"/>
<path d="M381.099 177.842L375.98 177.354L376.046 176.661L381.162 177.149L381.099 177.842Z" fill="#001F40"/>
<path d="M145.348 540.776L142.757 557.231H164.911L156.231 548.549L156.878 540.386L145.348 540.776Z" fill="#001F40"/>
<path d="M152.179 551.739L151.473 550.541L155.878 547.95L156.584 549.148L152.179 551.739Z" fill="white"/>
<path d="M191.096 421.055C190.769 423.016 190.459 424.959 190.1 426.885C189.494 430.524 188.858 434.129 188.205 437.691C185.873 450.5 183.323 462.891 180.556 474.892V474.924C175.037 499.145 168.725 521.813 161.76 543.221H142.062C149.991 505.382 157.671 467.945 160.143 438.966C160.516 434.707 160.765 430.618 160.889 426.746L191.096 421.055Z" fill="#14CCA1"/>
<path d="M190.303 539.999L189.342 556.914L212.971 557.231L203.589 548.549L204.289 540.386L190.303 539.999Z" fill="#001F40"/>
<path d="M199.162 551.753L198.493 550.527L203.254 547.936L203.923 549.162L199.162 551.753Z" fill="white"/>
<path d="M206.862 542.786H186.277C184.831 519.39 183.075 496.519 180.556 474.924V474.893C179.079 462.209 177.353 449.94 175.27 438.28C174.602 434.519 173.886 430.82 173.14 427.181L190.1 426.885L198.542 426.746C199.103 430.197 199.632 433.666 200.099 437.148C204.887 471.225 206.239 506.828 206.862 542.786Z" fill="#14CCA1"/>
<mask id="mask1_21_11715" style="mask-type:luminance" maskUnits="userSpaceOnUse" x="160" y="421" width="32" height="18">
<path d="M160.143 438.966C160.517 434.707 160.765 430.618 160.89 426.746L191.096 421.055C190.769 423.016 190.459 424.959 190.1 426.885L173.14 427.181C173.886 430.82 174.602 434.519 175.27 438.28L160.143 438.966Z" fill="white"/>
</mask>
<g mask="url(#mask1_21_11715)">
<path d="M160.143 438.966H191.096V421.055H160.143V438.966Z" fill="#249679"/>
</g>
<path d="M175.27 438.28C174.602 434.519 173.886 430.82 173.14 427.181L190.1 426.885L198.542 426.746C199.103 430.197 199.632 433.666 200.099 437.148L188.205 437.691L175.27 438.28Z" fill="#249679"/>
<path d="M179.245 483.839L178.562 483.703L185.558 448.982L186.241 449.121L179.245 483.839Z" fill="#001F40"/>
<path d="M185.64 379.867C175.212 380.995 166.692 380.124 158.4 375.127L150.331 388.824L159.728 397.227L157.839 426.868C157.728 428.612 158.672 430.253 160.235 431.036C160.839 431.339 161.505 431.496 162.181 431.496H197.769C199.705 431.496 201.436 430.287 202.108 428.47C202.269 428.027 202.363 427.564 202.387 427.094L203.909 395.674L219.842 391.906L216.167 379.355C204.027 380.772 193.074 381.535 185.64 379.867Z" fill="#007BFF"/>
<path d="M158.402 375.13L150.333 388.827L139.155 378.829C138.906 378.613 138.673 378.38 138.44 378.146C136.279 375.956 134.756 373.204 134.087 370.188C133.994 369.798 133.9 369.377 133.823 368.959C131.366 358.059 126.718 336.839 126.951 334.973C127.277 332.455 129.858 333.559 129.858 333.559C130.06 331.149 132.066 332.455 132.066 332.455C132.066 331.086 132.517 330.759 133.885 330.821C135.237 330.901 137.056 339.124 137.056 339.124C137.056 339.124 139.062 334.847 140.554 335.175C142.047 335.488 139.264 343.724 139.264 343.724L148.981 367.559C152.152 370.763 155.261 373.232 158.402 375.13Z" fill="#FFBA9A"/>
<path d="M138.44 378.146C136.279 375.956 134.756 373.204 134.087 370.188C133.994 369.798 133.9 369.377 133.823 368.959C134.056 368.928 134.289 368.91 134.522 368.91C137.539 368.91 139.964 371.352 139.964 374.354C139.964 375.83 139.389 377.168 138.44 378.146Z" fill="#FFA785"/>
<path d="M135.31 343.905C134.095 342.62 134.117 341.321 135.378 340.036L135.626 340.28C134.506 341.422 134.486 342.53 135.563 343.665L135.31 343.905Z" fill="#974245"/>
<path d="M132.61 335.916L131.895 332.49L132.236 332.42L132.952 335.847L132.61 335.916Z" fill="#974245"/>
<path d="M130.541 336.453L129.692 333.611L130.025 333.51L130.875 336.352L130.541 336.453Z" fill="#974245"/>
<path d="M128.92 337.222L128.208 334.569L128.544 334.478L129.256 337.132L128.92 337.222Z" fill="#974245"/>
<path d="M236.258 383.105C236.105 383.37 235.935 383.617 235.778 383.882L234.736 385.439C233.323 387.567 231.177 389.106 228.719 389.792C228.597 389.837 228.454 389.869 228.315 389.9L219.841 391.906L216.174 379.358C219.563 378.954 223.045 378.519 226.573 378.052L237.07 358.229C237.07 358.229 237.07 349.805 238.233 349.558C239.4 349.293 240.319 354.468 240.319 354.468C240.319 354.468 244.843 347.611 246.271 347.611C247.702 347.611 247.312 349.558 247.312 349.558C247.312 349.558 248.636 347.924 249.43 348.701C249.834 349.105 249.771 350.582 249.771 350.582C249.771 350.582 250.293 350.094 251.321 350.526C253.313 351.362 246.971 365.926 236.258 383.105Z" fill="#FFBA9A"/>
<path d="M228.719 389.792C228.503 389.217 228.395 388.608 228.395 387.971C228.395 384.955 230.833 382.531 233.835 382.531C234.705 382.531 235.531 382.733 236.259 383.105C236.105 383.37 235.935 383.617 235.778 383.882L234.737 385.439C233.323 387.567 231.178 389.106 228.719 389.792Z" fill="#FFA785"/>
<path d="M241.221 359.295L241.047 358.992C242.402 358.205 242.698 357.136 241.946 355.725L242.252 355.562C243.099 357.15 242.75 358.403 241.221 359.295Z" fill="#974245"/>
<path d="M245.944 352.333L245.637 352.166L247.291 349.081L247.598 349.248L245.944 352.333Z" fill="#974245"/>
<path d="M248.294 353.263L247.984 353.103L249.541 350.115L249.851 350.275L248.294 353.263Z" fill="#974245"/>
<path d="M249.82 353.601L249.524 353.416L250.959 351.073L251.255 351.254L249.82 353.601Z" fill="#974245"/>
<path d="M164.494 401.229L150.099 389.155L150.547 388.622L164.941 400.696L164.494 401.229Z" fill="#001F40"/>
<path d="M203.721 408.062L203.028 408.027L204.073 387.943L204.766 387.978L203.721 408.062Z" fill="#001F40"/>
<path d="M185.657 392.881C183.385 392.881 181.07 391.861 179.327 390.06L179.827 389.576C181.636 391.443 184.091 392.397 186.413 392.143C188.378 391.92 190.048 390.823 191.121 389.057L191.717 389.419C190.532 391.373 188.676 392.588 186.491 392.832C186.214 392.864 185.936 392.881 185.657 392.881Z" fill="#001F40"/>
<path d="M185.808 387.253C183.031 387.563 180.527 385.564 180.216 382.788L178.877 370.843L188.934 369.715L190.275 381.66C190.585 384.439 188.585 386.943 185.808 387.253Z" fill="#FFBA9A"/>
<path d="M182.237 375.332C184.552 377.989 187.176 379.867 190.226 380.671L189.505 374.221L182.237 375.332Z" fill="#001F40"/>
<path d="M194.304 362.408C194.304 362.408 196.237 375.092 191.811 376.715C187.676 378.23 182.237 375.332 182.237 375.332L178.586 364.682L183.324 360.364L194.304 362.408Z" fill="#FFBA9A"/>
<path d="M180.497 368.6C180.753 366.173 181.705 364.077 184.174 362.697C191.379 365.619 195.889 363.387 199.124 358.72C199.124 358.72 195.001 359.605 192.517 358.003C190.034 356.397 183.637 351.741 179.594 358.49C173.94 361.113 175.139 365.672 177.425 368.6H180.497Z" fill="#001F40"/>
<path d="M181.658 368.259C182.493 369.701 182.156 371.456 180.907 372.177C179.658 372.901 177.969 372.32 177.135 370.881C176.3 369.44 176.636 367.684 177.885 366.96C179.135 366.239 180.824 366.821 181.658 368.259Z" fill="#FFBA9A"/>
<path d="M179.823 370.854C179.74 369.736 179.267 368.97 178.375 368.517L178.691 367.897C179.801 368.461 180.416 369.436 180.519 370.801L179.823 370.854Z" fill="#001F40"/>
<path d="M174.933 262.587C188.269 262.587 199.079 273.397 199.079 286.732C199.079 296.079 193.757 304.169 185.99 308.181L188.399 320.631L179.797 310.389C178.226 310.709 176.599 310.88 174.933 310.88C161.598 310.88 150.787 300.07 150.787 286.732C150.787 273.397 161.598 262.587 174.933 262.587Z" fill="white"/>
<path d="M180.063 309.623L187.205 318.124L185.207 307.801L185.67 307.565C193.51 303.514 198.382 295.532 198.382 286.732C198.382 273.804 187.864 263.284 174.933 263.284C162.003 263.284 151.484 273.804 151.484 286.732C151.484 299.663 162.003 310.184 174.933 310.184C176.524 310.184 178.113 310.023 179.657 309.706L180.063 309.623ZM189.592 323.135L179.527 311.152C178.02 311.434 176.477 311.577 174.933 311.577C161.235 311.577 150.091 300.432 150.091 286.732C150.091 273.035 161.235 261.891 174.933 261.891C188.632 261.891 199.775 273.035 199.775 286.732C199.775 295.881 194.809 304.194 186.772 308.557L189.592 323.135Z" fill="#95BEFF"/>
<path d="M167.057 287.303C167.057 289.17 165.546 290.681 163.681 290.681C161.818 290.681 160.306 289.17 160.306 287.303C160.306 285.44 161.818 283.928 163.681 283.928C165.546 283.928 167.057 285.44 167.057 287.303Z" fill="#95BEFF"/>
<path d="M178.309 287.303C178.309 289.17 176.797 290.681 174.933 290.681C173.069 290.681 171.558 289.17 171.558 287.303C171.558 285.44 173.069 283.928 174.933 283.928C176.797 283.928 178.309 285.44 178.309 287.303Z" fill="#95BEFF"/>
<path d="M189.561 287.303C189.561 289.17 188.049 290.681 186.185 290.681C184.321 290.681 182.81 289.17 182.81 287.303C182.81 285.44 184.321 283.928 186.185 283.928C188.049 283.928 189.561 285.44 189.561 287.303Z" fill="#95BEFF"/>
<path d="M546.592 357.487L532.069 386.748L521.813 394.02L527.685 401.619C530.366 400.449 532.94 399.31 534.911 398.432C537.353 397.346 539.54 395.761 541.34 393.783L552.119 381.928L546.592 357.487Z" fill="#FF5C33"/>
<path d="M517.934 396.771C517.934 396.771 508.346 396.524 508.649 399.373C508.938 402.072 515.11 403.708 515.11 403.708C515.11 403.708 511.7 407.407 512.891 407.47C513.87 407.522 521.124 404.475 527.685 401.619L521.814 394.02L517.934 396.771Z" fill="#FFBA9A"/>
<path d="M576.246 501.506L576.013 520.748H553.25L563.81 511.362L564.983 500.566L576.246 501.506Z" fill="#001F40"/>
<path d="M566.864 515.242L563.326 511.864L564.291 510.857L567.825 514.235L566.864 515.242Z" fill="white"/>
<path d="M585.025 425.53L602.863 418.311L611.66 439.3L598.921 433.192L588.515 436.281L585.025 425.53Z" fill="#001F40"/>
<path d="M599.572 433.443L598.273 432.945L600.022 428.376L601.321 428.874L599.572 433.443Z" fill="white"/>
<path d="M541.451 402.298L559.307 503.927L579.039 503.234L566.923 389.694L541.451 402.298Z" fill="#007BFF"/>
<path d="M553.658 397.158L555.42 450.323C555.521 453.422 557.343 456.208 560.143 457.542C562.601 458.716 565.478 458.608 567.843 457.257L591.57 443.675L590.476 422.601L576.981 427.613L576.918 394.842L553.658 397.158Z" fill="#007BFF"/>
<path d="M602.139 363.617L583.124 352.48C581.118 351.302 578.893 350.557 576.584 350.286L564.325 348.84L554.142 352.027C548.166 353.897 543.973 359.271 543.604 365.522L541.451 402.298L576.918 394.842L579.746 369.398L600.206 379.003C604.114 380.946 608.86 379.616 611.176 375.917C615.86 368.447 623.48 355.973 628.359 346.343L616.724 342.213L602.139 363.617Z" fill="#FF5C33"/>
<path d="M630.567 332.584C630.567 332.584 631.146 331.041 630.376 330.56C629.606 330.076 628.739 330.943 628.739 330.943C628.739 330.943 629.606 328.822 628.352 328.439C627.099 328.053 622.279 335.088 622.279 335.088C622.279 335.088 621.701 330.654 620.45 330.752C619.197 330.849 618.424 339.716 618.424 339.716L616.724 342.213L628.359 346.343C631.219 340.705 633.138 336.042 632.977 333.931C632.803 331.608 630.567 332.584 630.567 332.584Z" fill="#FFBA9A"/>
<path d="M622.826 339.601L622.613 339.322C623.857 338.368 624.013 337.275 623.09 335.969L623.372 335.767C624.414 337.236 624.229 338.525 622.826 339.601Z" fill="#974245"/>
<path d="M627.238 333.301L626.953 333.099L628.966 330.233L629.251 330.435L627.238 333.301Z" fill="#974245"/>
<path d="M628.931 334.607L628.663 334.384L630.568 332.11L630.832 332.333L628.931 334.607Z" fill="#974245"/>
<path d="M630.111 335.958L629.84 335.742L631.543 333.586L631.814 333.799L630.111 335.958Z" fill="#974245"/>
<path d="M573.826 334.478C573.523 338.995 569.647 343.278 564.705 342.944C559.767 342.613 554.261 337.407 554.564 332.893C554.867 328.376 559.969 326.04 564.917 326.2C571.855 326.426 574.129 329.965 573.826 334.478Z" fill="#E8950C"/>
<path d="M563.876 355.109C561.295 354.935 559.345 352.702 559.519 350.122L560.233 339.503L569.58 340.134L568.866 350.752C568.692 353.333 566.456 355.283 563.876 355.109Z" fill="#FFBA9A"/>
<path d="M566.662 345.807C564.548 348.039 562.253 349.732 559.519 350.122L559.902 345.062L566.662 345.807Z" fill="#001F40"/>
<path d="M556.562 333.315C556.562 333.315 554.738 345.365 558.854 346.657C562.967 347.949 568.069 345.347 568.069 345.347L569.068 336.237L567.923 330.313L556.562 333.315Z" fill="#FFBA9A"/>
<path d="M568.919 339.897C567.766 338.605 566.62 336.463 566.352 334.266C563.395 335.551 559.798 335.69 555.685 334.899L556.904 331.117L565.906 329.407L570.552 330.734L568.919 339.897Z" fill="#E8950C"/>
<path d="M571.639 341.269C570.793 342.345 569.351 342.624 568.421 341.892C567.488 341.158 567.422 339.691 568.271 338.615C569.121 337.539 570.563 337.261 571.493 337.992C572.423 338.727 572.489 340.193 571.639 341.269Z" fill="#FFBA9A"/>
<path d="M569.385 341.039L568.692 340.99C568.818 339.2 569.932 338.789 570.845 338.762L570.869 339.458C569.918 339.486 569.462 339.974 569.385 341.039Z" fill="#001F40"/>
<path d="M578.973 326.994C578.757 330.201 575.982 332.625 572.778 332.409C569.57 332.193 567.146 329.418 567.362 326.21C567.578 323.006 570.35 320.579 573.558 320.795C576.765 321.011 579.189 323.786 578.973 326.994Z" fill="#E8950C"/>
<path d="M541.831 402.145L541.138 402.099L543.75 362.224L544.443 362.269L541.831 402.145Z" fill="#001F40"/>
<path d="M589.038 374.051L573.888 366.389L574.205 365.769L589.355 373.431L589.038 374.051Z" fill="#001F40"/>
<path d="M563.058 360.051C562.779 360.051 562.504 360.03 562.232 359.981C560.271 359.636 558.788 358.107 558.154 355.781L558.826 355.596C559.383 357.651 560.668 359.002 562.351 359.295C564.36 359.647 566.599 358.456 568.187 356.185L568.759 356.585C567.223 358.779 565.098 360.051 563.058 360.051Z" fill="#001F40"/>
<path d="M563.476 458.618C562.396 458.618 561.477 458.437 560.721 458.183C557.479 457.086 555.953 454.352 555.601 453.06C554.212 447.969 553.526 407.56 553.498 405.843L554.195 405.833C554.202 406.251 554.908 447.871 556.274 452.875C556.643 454.234 558.193 456.595 560.944 457.521C564.374 458.684 568.752 457.33 573.603 453.621L574.028 454.175C569.542 457.601 566.046 458.618 563.476 458.618Z" fill="#001F40"/>
<path d="M566.505 431.705L566.265 431.047L590.354 422.274L590.594 422.929L566.505 431.705Z" fill="#001F40"/>
<path d="M586.816 240.995C573.481 240.995 562.671 251.805 562.671 265.14C562.671 274.487 567.989 282.577 575.759 286.589L573.349 299.039L581.954 288.797C583.525 289.117 585.151 289.288 586.816 289.288C600.151 289.288 610.961 278.478 610.961 265.14C610.961 251.805 600.151 240.995 586.816 240.995Z" fill="white"/>
<path d="M586.816 241.691C573.885 241.691 563.364 252.209 563.364 265.14C563.364 273.94 568.236 281.922 576.079 285.973L576.542 286.209L574.543 296.532L581.686 288.031L582.094 288.114C583.636 288.431 585.224 288.591 586.816 288.591C599.747 288.591 610.264 278.071 610.264 265.14C610.264 252.209 599.747 241.691 586.816 241.691ZM572.154 301.543L574.975 286.965C566.941 282.601 561.971 274.288 561.971 265.14C561.971 251.443 573.115 240.298 586.816 240.298C600.513 240.298 611.657 251.443 611.657 265.14C611.657 278.84 600.513 289.985 586.816 289.985C585.273 289.985 583.73 289.842 582.222 289.56L572.154 301.543Z" fill="#95BEFF"/>
<path d="M578.938 265.035C578.938 266.902 577.427 268.413 575.564 268.413C573.7 268.413 572.189 266.902 572.189 265.035C572.189 263.172 573.7 261.661 575.564 261.661C577.427 261.661 578.938 263.172 578.938 265.035Z" fill="#95BEFF"/>
<path d="M590.191 265.035C590.191 266.902 588.679 268.413 586.816 268.413C584.953 268.413 583.441 266.902 583.441 265.035C583.441 263.172 584.953 261.661 586.816 261.661C588.679 261.661 590.191 263.172 590.191 265.035Z" fill="#95BEFF"/>
<path d="M601.442 265.035C601.442 266.902 599.931 268.413 598.068 268.413C596.201 268.413 594.69 266.902 594.69 265.035C594.69 263.172 596.201 261.661 598.068 261.661C599.931 261.661 601.442 263.172 601.442 265.035Z" fill="#95BEFF"/>
<path d="M746.666 557.447H0V556.054H746.666V557.447Z" fill="#001F40"/>
</g>
</svg>
